<?xml version="1.0" encoding="utf-8"?>
<!-- Generator: Adobe Illustrator 16.0.4, SVG Export Plug-In . SVG Version: 6.00 Build 0)  -->
<!DOCTYPE svg PUBLIC "-//W3C//DTD SVG 1.1//EN" "http://www.w3.org/Graphics/SVG/1.1/DTD/svg11.dtd">
<svg version="1.1" id="Layer_1" xmlns="http://www.w3.org/2000/svg" xmlns:xlink="http://www.w3.org/1999/xlink" x="0px" y="0px"
	 width="50px" height="100px" viewBox="0 0 50 100" enable-background="new 0 0 50 100" xml:space="preserve">
<g>
	<path fill="#FFFFFF" d="M31.081,0c3.347,0,5.021,2.283,5.021,4.897c0,3.259-2.909,6.274-6.693,6.274
		c-3.174,0-5.025-1.875-4.937-4.974C24.473,3.587,26.675,0,31.081,0z M20.771,50c-2.643,0-4.586-1.634-2.73-8.81l3.031-12.728
		c0.533-2.037,0.618-2.851,0-2.851c-0.789,0-4.222,1.408-6.254,2.792L13.503,26.2c6.429-5.46,13.826-8.663,16.998-8.663
		c2.641,0,3.083,3.182,1.762,8.075l-3.477,13.379c-0.614,2.362-0.346,3.176,0.267,3.176c0.794,0,3.396-0.979,5.947-3.019l1.497,2.04
		C30.243,47.549,23.411,50,20.771,50z"/>
</g>
<g>
	<path fill="#33414B" d="M31.081,50c3.347,0,5.021,2.283,5.021,4.896c0,3.26-2.909,6.275-6.693,6.275
		c-3.174,0-5.025-1.877-4.937-4.975C24.473,53.586,26.675,50,31.081,50z M20.771,100c-2.643,0-4.586-1.635-2.73-8.811l3.031-12.727
		c0.533-2.037,0.618-2.852,0-2.852c-0.789,0-4.222,1.408-6.254,2.793l-1.314-2.205c6.429-5.459,13.826-8.662,16.998-8.662
		c2.641,0,3.083,3.182,1.762,8.074L28.786,88.99c-0.614,2.363-0.346,3.176,0.267,3.176c0.794,0,3.396-0.979,5.947-3.018l1.497,2.039
		C30.243,97.549,23.411,100,20.771,100z"/>
</g>
</svg>
