<?xml version="1.0" encoding="utf-8"?>
<!-- Generator: Adobe Illustrator 16.0.4, SVG Export Plug-In . SVG Version: 6.00 Build 0)  -->
<!DOCTYPE svg PUBLIC "-//W3C//DTD SVG 1.1//EN" "http://www.w3.org/Graphics/SVG/1.1/DTD/svg11.dtd">
<svg version="1.1" id="Layer_1" xmlns="http://www.w3.org/2000/svg" xmlns:xlink="http://www.w3.org/1999/xlink" x="0px" y="0px"
	 width="50px" height="100px" viewBox="0 0 50 100" enable-background="new 0 0 50 100" xml:space="preserve">
<g>
	<path fill="#FFFFFF" d="M25,15.002c-4.144,0-7.5,3.358-7.5,7.499c0,4.144,3.356,7.502,7.5,7.502c4.141,0,7.501-3.358,7.501-7.502
		C32.501,18.36,29.141,15.002,25,15.002z M44.999,7.502h-5.997c-0.826,0-1.715-0.643-1.977-1.424l-1.55-4.653
		C35.213,0.644,34.324,0,33.499,0H16.502c-0.827,0-1.716,0.644-1.977,1.425l-1.551,4.653c-0.262,0.781-1.151,1.424-1.977,1.424h-6
		c-2.75,0-4.998,2.249-4.998,5v22.499c0,2.753,2.248,5,4.998,5h40.001c2.752,0,5.001-2.247,5.001-5V12.502
		C50,9.75,47.751,7.502,44.999,7.502z M25,35.001c-6.901,0-12.5-5.597-12.5-12.5c0-6.9,5.599-12.5,12.5-12.5
		c6.9,0,12.499,5.6,12.499,12.5C37.499,29.404,31.9,35.001,25,35.001z M43.251,15.994c-0.964,0-1.749-0.781-1.749-1.747
		c0-0.964,0.785-1.75,1.749-1.75s1.748,0.786,1.748,1.75C44.999,15.213,44.215,15.994,43.251,15.994z"/>
</g>
<g>
	<g>
		<path fill="#33414B" d="M25,65.002c-4.144,0-7.5,3.358-7.5,7.499c0,4.144,3.356,7.502,7.5,7.502c4.141,0,7.501-3.358,7.501-7.502
			C32.501,68.36,29.141,65.002,25,65.002z M44.999,57.502h-5.997c-0.826,0-1.715-0.643-1.977-1.424l-1.55-4.653
			C35.213,50.644,34.324,50,33.499,50H16.502c-0.827,0-1.716,0.644-1.977,1.425l-1.551,4.653c-0.262,0.781-1.151,1.424-1.977,1.424
			h-6c-2.75,0-4.998,2.248-4.998,5v22.499c0,2.753,2.248,5,4.998,5h40.001c2.752,0,5.001-2.247,5.001-5V62.502
			C50,59.75,47.751,57.502,44.999,57.502z M25,85.001c-6.901,0-12.5-5.597-12.5-12.5C12.5,65.601,18.099,60,25,60
			c6.9,0,12.499,5.601,12.499,12.501C37.499,79.404,31.9,85.001,25,85.001z M43.251,65.994c-0.964,0-1.749-0.781-1.749-1.747
			c0-0.964,0.785-1.75,1.749-1.75s1.748,0.786,1.748,1.75C44.999,65.213,44.215,65.994,43.251,65.994z"/>
	</g>
</g>
</svg>
