<?xml version="1.0" encoding="utf-8"?>
<!-- Generator: Adobe Illustrator 16.0.4, SVG Export Plug-In . SVG Version: 6.00 Build 0)  -->
<!DOCTYPE svg PUBLIC "-//W3C//DTD SVG 1.1//EN" "http://www.w3.org/Graphics/SVG/1.1/DTD/svg11.dtd">
<svg version="1.1" id="Layer_1" xmlns="http://www.w3.org/2000/svg" xmlns:xlink="http://www.w3.org/1999/xlink" x="0px" y="0px"
	 width="50px" height="50px" viewBox="0 0 50 50" enable-background="new 0 0 50 50" xml:space="preserve">
<g>
	<path fill="#C5573B" d="M24.667,0.002C10.862,0.188-0.186,11.527,0.002,25.335C0.186,39.139,11.53,50.184,25.333,49.997
		c13.806-0.186,24.854-11.527,24.664-25.33C49.815,10.861,38.476-0.182,24.667,0.002z M25.266,44.734
		C14.36,44.882,5.408,36.162,5.264,25.264c-0.148-10.9,8.573-19.85,19.471-19.999c10.9-0.146,19.854,8.572,19.999,19.472
		C44.883,35.634,36.163,44.588,25.266,44.734z M13.159,36.732c0,0,11.896-1.64,16.973-6.712c5.078-5.075,6.708-16.974,6.708-16.974
		s-11.895,1.635-16.972,6.708C14.794,24.834,13.159,36.732,13.159,36.732z M22.436,22.322c2.13-2.134,6.214-3.645,9.711-4.586
		c-0.941,3.493-2.461,7.602-4.583,9.716c-1.412,1.418-3.714,1.418-5.128,0C21.018,26.042,21.018,23.74,22.436,22.322z"/>
</g>
</svg>
