<?xml version="1.0" encoding="utf-8"?>
<!-- Generator: Adobe Illustrator 16.0.4, SVG Export Plug-In . SVG Version: 6.00 Build 0)  -->
<!DOCTYPE svg PUBLIC "-//W3C//DTD SVG 1.1//EN" "http://www.w3.org/Graphics/SVG/1.1/DTD/svg11.dtd">
<svg version="1.1" id="Layer_1" xmlns="http://www.w3.org/2000/svg" xmlns:xlink="http://www.w3.org/1999/xlink" x="0px" y="0px"
	 width="50px" height="50px" viewBox="0 0 50 50" enable-background="new 0 0 50 50" xml:space="preserve">
<g>
	<g>
		<path fill="#31404A" d="M27.672,0.069h-5.199c-3.174,0-4.618,1.445-4.618,4.619v5.2c0,3.174,1.444,4.616,4.618,4.616h5.199
			c3.174,0,4.616-1.442,4.616-4.616v-5.2C32.288,1.514,30.846,0.069,27.672,0.069z"/>
		<path fill="#31404A" d="M27.672,17.782h-5.199c-3.174,0-4.618,1.444-4.618,4.618v5.195c0,3.179,1.444,4.621,4.618,4.621h5.199
			c3.174,0,4.616-1.442,4.616-4.621V22.4C32.288,19.226,30.846,17.782,27.672,17.782z"/>
		<path fill="#31404A" d="M27.672,35.494h-5.199c-3.174,0-4.618,1.444-4.618,4.618v5.197c0,3.177,1.444,4.621,4.618,4.621h5.199
			c3.174,0,4.616-1.444,4.616-4.621v-5.197C32.288,36.938,30.846,35.494,27.672,35.494z"/>
	</g>
	<g>
		<path fill="#31404A" d="M45.379,0.069h-5.194c-3.174,0-4.616,1.445-4.616,4.619v5.2c0,3.174,1.442,4.616,4.616,4.616h5.194
			c3.174,0,4.621-1.442,4.621-4.616v-5.2C50,1.514,48.553,0.069,45.379,0.069z"/>
		<path fill="#31404A" d="M45.379,17.782h-5.194c-3.174,0-4.616,1.444-4.616,4.618v5.195c0,3.179,1.442,4.621,4.616,4.621h5.194
			c3.174,0,4.621-1.442,4.621-4.621V22.4C50,19.226,48.553,17.782,45.379,17.782z"/>
		<path fill="#31404A" d="M45.379,35.494h-5.194c-3.174,0-4.616,1.444-4.616,4.618v5.197c0,3.177,1.442,4.621,4.616,4.621h5.194
			c3.174,0,4.621-1.444,4.621-4.621v-5.197C50,36.938,48.553,35.494,45.379,35.494z"/>
	</g>
	<g>
		<path fill="#31404A" d="M9.814,0.069H4.619C1.442,0.069,0,1.514,0,4.688v5.2c0,3.174,1.442,4.616,4.619,4.616h5.195
			c3.174,0,4.62-1.442,4.62-4.616v-5.2C14.435,1.514,12.988,0.069,9.814,0.069z"/>
		<path fill="#31404A" d="M9.814,17.782H4.619C1.442,17.782,0,19.226,0,22.4v5.195c0,3.179,1.442,4.621,4.619,4.621h5.195
			c3.174,0,4.62-1.442,4.62-4.621V22.4C14.435,19.226,12.988,17.782,9.814,17.782z"/>
		<path fill="#31404A" d="M9.814,35.494H4.619C1.442,35.494,0,36.938,0,40.112v5.197c0,3.177,1.442,4.621,4.619,4.621h5.195
			c3.174,0,4.62-1.444,4.62-4.621v-5.197C14.435,36.938,12.988,35.494,9.814,35.494z"/>
	</g>
</g>
</svg>
