<?xml version="1.0" encoding="utf-8"?>
<!-- Generator: Adobe Illustrator 16.0.4, SVG Export Plug-In . SVG Version: 6.00 Build 0)  -->
<!DOCTYPE svg PUBLIC "-//W3C//DTD SVG 1.1//EN" "http://www.w3.org/Graphics/SVG/1.1/DTD/svg11.dtd">
<svg version="1.1" id="Layer_1" xmlns="http://www.w3.org/2000/svg" xmlns:xlink="http://www.w3.org/1999/xlink" x="0px" y="0px"
	 width="50px" height="100px" viewBox="0 0 50 100" enable-background="new 0 0 50 100" xml:space="preserve">
<g>
	<path fill="#FFFFFF" d="M8.009,5.829h13.212c0.641,1.485,2.116,2.523,3.836,2.523c2.305,0,4.174-1.87,4.174-4.176
		C29.23,1.87,27.361,0,25.057,0c-1.72,0-3.195,1.04-3.836,2.523H8.009C7.37,1.04,5.896,0,4.176,0C1.869,0,0,1.87,0,4.176
		c0,2.306,1.869,4.176,4.176,4.176C5.896,8.352,7.37,7.313,8.009,5.829z M25.057,1.768c1.329,0,2.407,1.08,2.407,2.409
		c0,1.33-1.078,2.408-2.407,2.408c-1.332,0-2.41-1.078-2.41-2.408C22.646,2.847,23.725,1.768,25.057,1.768z M1.768,4.176
		c0-1.329,1.077-2.409,2.408-2.409c1.33,0,2.408,1.08,2.408,2.409c0,1.33-1.078,2.408-2.408,2.408
		C2.845,6.584,1.768,5.506,1.768,4.176z"/>
	<path fill="#FFFFFF" d="M28.781,5.829h13.211c0.641,1.485,2.114,2.523,3.834,2.523c2.306,0,4.174-1.87,4.174-4.176
		C50,1.87,48.132,0,45.826,0c-1.72,0-3.193,1.04-3.834,2.523H28.781C28.142,1.04,26.665,0,24.946,0c-2.305,0-4.175,1.87-4.175,4.176
		c0,2.306,1.87,4.176,4.175,4.176C26.665,8.352,28.142,7.313,28.781,5.829z M45.826,1.768c1.33,0,2.408,1.08,2.408,2.409
		c0,1.33-1.078,2.408-2.408,2.408s-2.409-1.078-2.409-2.408C43.417,2.847,44.496,1.768,45.826,1.768z M22.537,4.176
		c0-1.329,1.078-2.409,2.409-2.409s2.409,1.08,2.409,2.409c0,1.33-1.078,2.408-2.409,2.408S22.537,5.506,22.537,4.176z"/>
</g>
<g>
	<g>
		<path fill="#33414B" d="M8.009,55.828h13.212c0.641,1.485,2.116,2.524,3.836,2.524c2.305,0,4.174-1.87,4.174-4.177
			c0-2.306-1.869-4.176-4.174-4.176c-1.72,0-3.195,1.04-3.836,2.522H8.009C7.37,51.04,5.896,50,4.176,50C1.869,50,0,51.87,0,54.176
			c0,2.307,1.869,4.177,4.176,4.177C5.896,58.353,7.37,57.313,8.009,55.828z M25.057,51.768c1.329,0,2.407,1.079,2.407,2.408
			c0,1.33-1.078,2.409-2.407,2.409c-1.332,0-2.41-1.079-2.41-2.409C22.646,52.847,23.725,51.768,25.057,51.768z M1.768,54.176
			c0-1.329,1.077-2.408,2.408-2.408c1.33,0,2.408,1.079,2.408,2.408c0,1.33-1.078,2.409-2.408,2.409
			C2.845,56.585,1.768,55.506,1.768,54.176z"/>
		<path fill="#33414B" d="M28.781,55.828h13.211c0.641,1.485,2.114,2.524,3.834,2.524c2.306,0,4.174-1.87,4.174-4.177
			C50,51.87,48.132,50,45.826,50c-1.72,0-3.193,1.04-3.834,2.522H28.781C28.142,51.04,26.665,50,24.946,50
			c-2.305,0-4.175,1.87-4.175,4.176c0,2.307,1.87,4.177,4.175,4.177C26.665,58.353,28.142,57.313,28.781,55.828z M45.826,51.768
			c1.33,0,2.408,1.079,2.408,2.408c0,1.33-1.078,2.409-2.408,2.409s-2.409-1.079-2.409-2.409
			C43.417,52.847,44.496,51.768,45.826,51.768z M22.537,54.176c0-1.329,1.078-2.408,2.409-2.408s2.409,1.079,2.409,2.408
			c0,1.33-1.078,2.409-2.409,2.409S22.537,55.506,22.537,54.176z"/>
	</g>
</g>
</svg>
