<?xml version="1.0" encoding="utf-8"?>
<!-- Generator: Adobe Illustrator 16.0.4, SVG Export Plug-In . SVG Version: 6.00 Build 0)  -->
<!DOCTYPE svg PUBLIC "-//W3C//DTD SVG 1.1//EN" "http://www.w3.org/Graphics/SVG/1.1/DTD/svg11.dtd">
<svg version="1.1" id="Layer_1" xmlns="http://www.w3.org/2000/svg" xmlns:xlink="http://www.w3.org/1999/xlink" x="0px" y="0px"
	 width="50px" height="50px" viewBox="0 0 50 50" enable-background="new 0 0 50 50" xml:space="preserve">
<path fill="#33414B" d="M43.758,0.009H6.25C2.806,0.009,0,2.813,0,6.258v37.487c0,3.449,2.806,6.246,6.25,6.246h18.972V32.075
	h-5.997v-7.806h5.997v-3.913c0-6.031,4.447-10.759,10.141-10.759h5.516v8.805h-4.945c-1.296,0-1.655,0.759-1.655,1.785v4.083h6.601
	v7.806h-6.601v17.916h9.48c3.424,0,6.242-2.797,6.242-6.246V6.258C50,2.813,47.182,0.009,43.758,0.009z"/>
</svg>
