<?xml version="1.0" encoding="utf-8"?>
<!-- Generator: Adobe Illustrator 16.0.4, SVG Export Plug-In . SVG Version: 6.00 Build 0)  -->
<!DOCTYPE svg PUBLIC "-//W3C//DTD SVG 1.1//EN" "http://www.w3.org/Graphics/SVG/1.1/DTD/svg11.dtd">
<svg version="1.1" id="Layer_1" xmlns="http://www.w3.org/2000/svg" xmlns:xlink="http://www.w3.org/1999/xlink" x="0px" y="0px"
	 width="50px" height="100px" viewBox="0 0 50 100" enable-background="new 0 0 50 100" xml:space="preserve">
<g>
	<path fill="#FFFFFF" d="M49.36,23.197L27.072,0.888c-1.141-1.183-3.005-1.183-4.144,0L0.639,23.197
		c-1.14,1.183-0.715,2.148,0.945,2.148h4.645V42.48c0,1.24,0.055,2.242,2.291,2.242h10.819V27.541h11.322v17.182h11.356
		c1.705,0,1.751-1.002,1.751-2.242V25.345h4.646C50.075,25.345,50.5,24.379,49.36,23.197z"/>
</g>
<g>
	<path fill="#33414B" d="M49.36,73.196L27.072,50.888c-1.141-1.184-3.005-1.184-4.144,0L0.639,73.196
		c-1.14,1.183-0.715,2.148,0.945,2.148h4.645V92.48c0,1.24,0.055,2.242,2.291,2.242h10.819V77.541h11.322v17.182h11.356
		c1.705,0,1.751-1.002,1.751-2.242V75.345h4.646C50.075,75.345,50.5,74.379,49.36,73.196z"/>
</g>
</svg>
