<?xml version="1.0" encoding="utf-8"?>
<!-- Generator: Adobe Illustrator 16.0.4, SVG Export Plug-In . SVG Version: 6.00 Build 0)  -->
<!DOCTYPE svg PUBLIC "-//W3C//DTD SVG 1.1//EN" "http://www.w3.org/Graphics/SVG/1.1/DTD/svg11.dtd">
<svg version="1.1" id="Layer_1" xmlns="http://www.w3.org/2000/svg" xmlns:xlink="http://www.w3.org/1999/xlink" x="0px" y="0px"
	 width="50px" height="50px" viewBox="0 0 50 50" enable-background="new 0 0 50 50" xml:space="preserve">
<g>
	<path fill="#C5573B" d="M46.427,21.429H3.571C1.598,21.429,0,23.026,0,25s1.598,3.571,3.571,3.571h42.855
		C48.4,28.571,50,26.974,50,25S48.4,21.429,46.427,21.429z M3.571,14.284h42.855c1.974,0,3.573-1.596,3.573-3.569
		c0-1.974-1.6-3.574-3.573-3.574H3.571C1.598,7.142,0,8.742,0,10.715C0,12.688,1.598,14.284,3.571,14.284z M46.427,35.716H3.571
		C1.598,35.716,0,37.312,0,39.284c0,1.974,1.598,3.574,3.571,3.574h42.855c1.974,0,3.573-1.601,3.573-3.574
		C50,37.312,48.4,35.716,46.427,35.716z"/>
</g>
</svg>
