<?xml version="1.0" encoding="utf-8"?>
<!-- Generator: Adobe Illustrator 16.0.4, SVG Export Plug-In . SVG Version: 6.00 Build 0)  -->
<!DOCTYPE svg PUBLIC "-//W3C//DTD SVG 1.1//EN" "http://www.w3.org/Graphics/SVG/1.1/DTD/svg11.dtd">
<svg version="1.1" id="Layer_1" xmlns="http://www.w3.org/2000/svg" xmlns:xlink="http://www.w3.org/1999/xlink" x="0px" y="0px"
	 width="50px" height="50px" viewBox="0 0 50 50" enable-background="new 0 0 50 50" xml:space="preserve">
<g>
	<path fill="#E76032" d="M24.666,0.002C10.86,0.187-0.18,11.53,0.003,25.336c0.185,13.802,11.526,24.846,25.331,24.662
		c13.804-0.188,24.846-11.529,24.664-25.334C49.813,10.863,38.471-0.181,24.666,0.002z"/>
	<path fill="#FFFFFF" stroke="#E76032" stroke-miterlimit="10" d="M24.592,40.217l-0.138-0.001
		c-2.126-0.063-3.625-1.629-3.564-3.725c0.059-2.06,1.595-3.554,3.651-3.554l0.123,0.002c2.185,0.066,3.669,1.616,3.605,3.771
		C28.208,38.775,26.697,40.217,24.592,40.217z"/>
	<path fill="#FFFFFF" stroke="#E76032" stroke-miterlimit="10" d="M33.535,22.468c-0.5,0.71-1.6,1.592-2.983,2.671l-1.526,1.053
		c-0.839,0.651-1.342,1.265-1.534,1.865c-0.147,0.475-0.222,0.602-0.234,1.566l-0.003,0.245h-5.825l0.017-0.493
		c0.071-2.026,0.121-3.219,0.961-4.203c1.317-1.546,4.222-3.418,4.346-3.497c0.416-0.313,0.768-0.671,1.028-1.052
		c0.611-0.843,0.883-1.506,0.883-2.159c0-0.904-0.269-1.741-0.799-2.486c-0.512-0.72-1.481-1.083-2.882-1.083
		c-1.392,0-2.343,0.44-2.913,1.346c-0.586,0.932-0.883,1.908-0.883,2.908v0.249h-6.005l0.01-0.26
		c0.156-3.679,1.468-6.328,3.901-7.873c1.529-0.985,3.431-1.483,5.651-1.483c2.904,0,5.358,0.705,7.288,2.098
		c1.958,1.411,2.949,3.523,2.949,6.281C34.982,19.704,34.495,21.151,33.535,22.468z"/>
</g>
</svg>
