<?xml version="1.0" encoding="utf-8"?>
<!-- Generator: Adobe Illustrator 16.0.4, SVG Export Plug-In . SVG Version: 6.00 Build 0)  -->
<!DOCTYPE svg PUBLIC "-//W3C//DTD SVG 1.1//EN" "http://www.w3.org/Graphics/SVG/1.1/DTD/svg11.dtd">
<svg version="1.1" id="Layer_1" xmlns="http://www.w3.org/2000/svg" xmlns:xlink="http://www.w3.org/1999/xlink" x="0px" y="0px"
	 width="50px" height="50px" viewBox="0 0 50 50" enable-background="new 0 0 50 50" xml:space="preserve">
<path fill="#FFFFFF" d="M50,9.489c-1.836,0.811-3.81,1.371-5.896,1.621c2.123-1.279,3.754-3.274,4.521-5.686
	c-1.981,1.191-4.174,2.045-6.519,2.497c-1.872-2.001-4.537-3.238-7.493-3.238c-5.664,0-10.258,4.593-10.258,10.248
	c0,0.815,0.104,1.597,0.268,2.338c-8.52-0.416-16.084-4.51-21.138-10.713c-0.892,1.523-1.39,3.275-1.39,5.165
	c0,3.561,1.81,6.697,4.562,8.534c-1.682-0.061-3.27-0.515-4.642-1.284c0,0.042,0,0.092,0,0.125c0,4.98,3.523,9.128,8.223,10.066
	c-0.862,0.236-1.776,0.363-2.708,0.363c-0.649,0-1.297-0.066-1.929-0.197c1.309,4.082,5.095,7.056,9.589,7.131
	c-3.52,2.76-7.944,4.392-12.747,4.392c-0.829,0-1.639-0.056-2.444-0.147c4.536,2.912,9.922,4.615,15.726,4.615
	c18.863,0,29.189-15.625,29.189-29.181c0-0.457-0.015-0.891-0.031-1.327C46.896,13.359,48.629,11.543,50,9.489z"/>
</svg>
